<svg width="17" height="17" viewBox="0 0 17 17" fill="none" xmlns="http://www.w3.org/2000/svg">
<path d="M8.50004 6.37498C9.66879 6.37498 10.625 7.33123 10.625 8.49998C10.625 9.66873 9.66879 10.625 8.50004 10.625C7.33129 10.625 6.37504 9.66873 6.37504 8.49998C6.37504 7.33123 7.33129 6.37498 8.50004 6.37498ZM8.50004 4.95831C6.54504 4.95831 4.95837 6.54498 4.95837 8.49998C4.95837 10.455 6.54504 12.0416 8.50004 12.0416C10.455 12.0416 12.0417 10.455 12.0417 8.49998C12.0417 6.54498 10.455 4.95831 8.50004 4.95831ZM1.41671 9.20831H2.83337C3.22296 9.20831 3.54171 8.88956 3.54171 8.49998C3.54171 8.1104 3.22296 7.79165 2.83337 7.79165H1.41671C1.02712 7.79165 0.708374 8.1104 0.708374 8.49998C0.708374 8.88956 1.02712 9.20831 1.41671 9.20831ZM14.1667 9.20831H15.5834C15.973 9.20831 16.2917 8.88956 16.2917 8.49998C16.2917 8.1104 15.973 7.79165 15.5834 7.79165H14.1667C13.7771 7.79165 13.4584 8.1104 13.4584 8.49998C13.4584 8.88956 13.7771 9.20831 14.1667 9.20831ZM7.79171 1.41665V2.83331C7.79171 3.2229 8.11046 3.54165 8.50004 3.54165C8.88962 3.54165 9.20837 3.2229 9.20837 2.83331V1.41665C9.20837 1.02706 8.88962 0.708313 8.50004 0.708313C8.11046 0.708313 7.79171 1.02706 7.79171 1.41665ZM7.79171 14.1666V15.5833C7.79171 15.9729 8.11046 16.2916 8.50004 16.2916C8.88962 16.2916 9.20837 15.9729 9.20837 15.5833V14.1666C9.20837 13.7771 8.88962 13.4583 8.50004 13.4583C8.11046 13.4583 7.79171 13.7771 7.79171 14.1666ZM4.24296 3.24415C3.96671 2.9679 3.51337 2.9679 3.24421 3.24415C2.96796 3.5204 2.96796 3.97373 3.24421 4.2429L3.99504 4.99373C4.27129 5.26998 4.72462 5.26998 4.99379 4.99373C5.26296 4.71748 5.27004 4.26415 4.99379 3.99498L4.24296 3.24415ZM13.005 12.0062C12.7288 11.73 12.2755 11.73 12.0063 12.0062C11.73 12.2825 11.73 12.7358 12.0063 13.005L12.7571 13.7558C13.0334 14.0321 13.4867 14.0321 13.7559 13.7558C14.0321 13.4796 14.0321 13.0262 13.7559 12.7571L13.005 12.0062ZM13.7559 4.2429C14.0321 3.96665 14.0321 3.51331 13.7559 3.24415C13.4796 2.9679 13.0263 2.9679 12.7571 3.24415L12.0063 3.99498C11.73 4.27123 11.73 4.72456 12.0063 4.99373C12.2825 5.2629 12.7359 5.26998 13.005 4.99373L13.7559 4.2429ZM4.99379 13.005C5.27004 12.7287 5.27004 12.2754 4.99379 12.0062C4.71754 11.73 4.26421 11.73 3.99504 12.0062L3.24421 12.7571C2.96796 13.0333 2.96796 13.4866 3.24421 13.7558C3.52046 14.025 3.97379 14.0321 4.24296 13.7558L4.99379 13.005Z" fill="#666666"/>
</svg>
