<svg width="19" height="19" viewBox="0 0 19 19" fill="none" xmlns="http://www.w3.org/2000/svg">
<path d="M14.25 6.33332H13.4583V4.74999C13.4583 2.56499 11.685 0.791656 9.49996 0.791656C7.31496 0.791656 5.54163 2.56499 5.54163 4.74999V6.33332H4.74996C3.87913 6.33332 3.16663 7.04582 3.16663 7.91666V15.8333C3.16663 16.7042 3.87913 17.4167 4.74996 17.4167H14.25C15.1208 17.4167 15.8333 16.7042 15.8333 15.8333V7.91666C15.8333 7.04582 15.1208 6.33332 14.25 6.33332ZM9.49996 13.4583C8.62913 13.4583 7.91663 12.7458 7.91663 11.875C7.91663 11.0042 8.62913 10.2917 9.49996 10.2917C10.3708 10.2917 11.0833 11.0042 11.0833 11.875C11.0833 12.7458 10.3708 13.4583 9.49996 13.4583ZM11.9541 6.33332H7.04579V4.74999C7.04579 3.39624 8.14621 2.29582 9.49996 2.29582C10.8537 2.29582 11.9541 3.39624 11.9541 4.74999V6.33332Z" fill="black"/>
</svg>
