<svg width="13" height="17" viewBox="0 0 13 17" fill="none" xmlns="http://www.w3.org/2000/svg">
<path d="M6.1316 10.5113C7.58566 10.5113 8.75942 9.33752 8.75942 7.88346V2.62782C8.75942 1.17376 7.58566 0 6.1316 0C4.67754 0 3.50378 1.17376 3.50378 2.62782V7.88346C3.50378 9.33752 4.67754 10.5113 6.1316 10.5113Z" fill="#666666"/>
<path d="M10.5113 7.88347C10.5113 10.3011 8.54917 12.2632 6.13158 12.2632C3.71398 12.2632 1.75188 10.3011 1.75188 7.88347H0C0 10.9755 2.2862 13.5158 5.25564 13.945V16.6429H7.00752V13.945C9.97695 13.5158 12.2632 10.9755 12.2632 7.88347H10.5113V7.88347Z" fill="#666666"/>
</svg>
