<svg width="20" height="20" viewBox="0 0 20 20" fill="none" xmlns="http://www.w3.org/2000/svg">
<path d="M10.0011 20L12.7991 4.19664C15.466 4.19664 16.3073 4.49034 16.4287 5.68914C16.4287 5.68914 18.2178 5.01921 19.1201 3.65858C15.5989 2.01994 12.0609 1.94604 12.0609 1.94604L9.99645 4.47133L10.0011 4.47101L7.93662 1.94564C7.93662 1.94564 4.39854 2.01962 0.877814 3.65827C1.77937 5.01889 3.56915 5.68882 3.56915 5.68882C3.69132 4.48994 4.53151 4.19624 7.18058 4.19434L10.0011 20Z" fill="#090909"/>
<path d="M10 1.21662C12.8464 1.19476 16.1044 1.65884 19.4396 3.11871C19.8854 2.31293 20 1.95682 20 1.95682C16.3541 0.508194 12.9398 0.0124355 9.99961 0C7.05959 0.0124355 3.64542 0.508273 0 1.95682C0 1.95682 0.162629 2.39547 0.559972 3.11871C3.89457 1.65884 7.15313 1.19476 9.99961 1.21662H10Z" fill="#090909"/>
</svg>
