<svg width="13" height="15" viewBox="0 0 13 15" fill="none" xmlns="http://www.w3.org/2000/svg">
<path d="M0.00654113 13.8858C-0.0565246 14.4345 0.337137 14.9304 0.885809 14.9934C1.43448 15.0565 1.93039 14.6628 1.99346 14.1142L0.00654113 13.8858ZM10.4602 14.0688C10.4982 14.6198 10.9757 15.0356 11.5266 14.9976C12.0776 14.9596 12.4935 14.4822 12.4555 13.9312L10.4602 14.0688ZM1.99346 14.1142C2.06936 13.4538 2.38943 12.4213 3.08111 11.5761C3.74369 10.7665 4.75767 10.1084 6.34137 10.1084V8.10841C4.10178 8.10841 2.53877 9.08088 1.53335 10.3094C0.557028 11.5024 0.118056 12.9156 0.00654113 13.8858L1.99346 14.1142ZM6.34137 10.1084C7.92184 10.1084 8.88849 10.7627 9.49977 11.554C10.1431 12.3869 10.4147 13.4096 10.4602 14.0688L12.4555 13.9312C12.3885 12.9598 12.0135 11.5367 11.0826 10.3315C10.1196 9.08469 8.5842 8.10841 6.34137 8.10841V10.1084Z" fill="#090909"/>
<circle cx="6.28506" cy="3.71085" r="2.71085" stroke="#090909" stroke-width="2"/>
</svg>
