<svg width="19" height="19" viewBox="0 0 19 19" fill="none" xmlns="http://www.w3.org/2000/svg">
<path d="M8.70837 11.875H10.2917V13.4584H8.70837V11.875ZM8.70837 5.54171H10.2917V10.2917H8.70837V5.54171ZM9.49212 1.58337C5.12212 1.58337 1.58337 5.13004 1.58337 9.50004C1.58337 13.87 5.12212 17.4167 9.49212 17.4167C13.87 17.4167 17.4167 13.87 17.4167 9.50004C17.4167 5.13004 13.87 1.58337 9.49212 1.58337ZM9.50004 15.8334C6.00087 15.8334 3.16671 12.9992 3.16671 9.50004C3.16671 6.00087 6.00087 3.16671 9.50004 3.16671C12.9992 3.16671 15.8334 6.00087 15.8334 9.50004C15.8334 12.9992 12.9992 15.8334 9.50004 15.8334Z" fill="#666666"/>
</svg>
